PathFileType	4	(X/Y/Z)	c:/Users/goper/Files/vsCode/490R/osim_files/C10/C10_Slow_01.trc
DataRate	CameraRate	NumFrames	NumMarkers	Units                	OrigDataRate	OrigDataStartFrame	OrigNumFrames
250.00	250.00	6	36	mm	250.0	1829	2925
                Frame#	Time	LPSIS			LASIS			LTH1			LTH2			LTH3			LTH4			LLFE			LMFE			LSH1			LSH2			LSH3			LSH4			LLMAL			LMMAL			LCAL			LMTP5			LTOE			LMTP1			RPSIS			RASIS			RTH1			RTH2			RTH3			RTH4			RLFE			RMFE			RSH1			RSH2			RSH3			RSH4			RLMAL			RMMAL			RCAL			RMTP1			RTOE			RMTP5		
		X1	Y1	Z1	X2	Y2	Z2	X3	Y3	Z3	X4	Y4	Z4	X5	Y5	Z5	X6	Y6	Z6	X7	Y7	Z7	X8	Y8	Z8	X9	Y9	Z9	X10	Y10	Z10	X11	Y11	Z11	X12	Y12	Z12	X13	Y13	Z13	X14	Y14	Z14	X15	Y15	Z15	X16	Y16	Z16	X17	Y17	Z17	X18	Y18	Z18	X19	Y19	Z19	X20	Y20	Z20	X21	Y21	Z21	X22	Y22	Z22	X23	Y23	Z23	X24	Y24	Z24	X25	Y25	Z25	X26	Y26	Z26	X27	Y27	Z27	X28	Y28	Z28	X29	Y29	Z29	X30	Y30	Z30	X31	Y31	Z31	X32	Y32	Z32	X33	Y33	Z33	X34	Y34	Z34	X35	Y35	Z35	X36	Y36	Z36

1829	7.31200	500.00876	976.93274	273.57935	336.72858	979.23639	397.85474	300.48761	745.74652	438.62415	276.22241	705.53180	429.33148	254.29701	773.16547	412.71039	237.78568	728.74542	404.41150	0.00000	0.00000	0.00000	167.99767	495.80161	332.22192	206.85349	402.92215	349.20374	203.44159	356.50055	349.81412	150.65771	404.20062	326.23920	154.15442	358.58078	326.25845	189.10547	91.33545	304.92606	0.00000	0.00000	0.00000	262.32159	43.85265	267.16043	84.64153	33.62066	310.26587	36.72573	52.82390	243.65858	77.83021	28.46526	201.10675	496.39978	982.81354	190.02884	343.26596	956.78619	62.56910	464.53372	706.73834	30.96742	461.00320	670.20117	38.48946	404.05133	712.17523	26.28827	409.31656	667.87750	27.45320	479.64505	449.61960	81.57092	453.70776	427.65668	190.00719	595.19818	423.40298	87.41993	622.46838	387.46432	85.77641	549.10638	380.21564	80.71107	583.63232	353.40430	79.63148	778.24109	168.11340	134.54922	748.59216	168.47510	211.73164	854.66949	164.98256	183.31482	717.17340	42.37303	223.51837	690.54468	38.09857	185.22932	738.77429	37.59377	122.39291
1830	7.31600	494.82443	977.31415	273.72836	331.70062	980.11603	398.46536	295.83658	746.33008	439.48611	272.31305	706.07953	430.06842	249.45364	773.40820	413.36258	233.41124	728.86792	404.86887	0.00000	0.00000	0.00000	165.74088	495.29611	332.55936	204.75256	403.13971	349.44373	201.89487	356.95505	350.18369	148.42200	405.58035	325.38483	153.19995	358.89938	327.70776	189.06868	91.32955	304.90097	0.00000	0.00000	0.00000	262.35751	43.85891	267.16135	84.63270	33.64535	310.23251	36.75893	52.69172	243.57748	77.89398	28.42142	200.99538	491.27991	983.02466	190.14937	338.10199	957.41846	63.06424	457.98315	705.95880	31.33072	453.88120	669.42889	38.88898	397.46555	712.05548	26.58857	401.89523	667.61139	27.71699	470.64883	449.04865	81.09020	443.07468	425.97464	188.69446	585.73505	424.19891	87.39408	613.51221	388.50729	85.63398	539.41962	380.28027	80.69279	574.83826	353.86465	78.81698	772.21667	171.76584	134.04176	742.44983	171.41873	211.26093	848.60687	171.17717	182.93098	715.46741	44.07318	223.13388	689.39154	38.67633	184.66502	737.29694	39.49648	122.39585
1831	7.32000	489.63306	977.64801	273.88016	326.65323	981.05438	398.97699	291.46567	747.15326	440.17371	267.96497	706.63116	430.48190	244.80455	773.83044	413.92978	229.21324	729.26135	405.37372	0.00000	0.00000	0.00000	163.51631	495.07401	332.81912	202.71706	403.35190	349.68506	200.04585	357.10214	350.44678	146.47371	405.49527	325.59375	151.36096	358.88800	327.86285	189.06195	91.33497	304.92480	0.00000	0.00000	0.00000	262.38416	43.87265	267.15860	84.61115	33.65744	310.21890	36.76405	52.58933	243.53166	77.86991	28.30859	200.99789	486.28165	983.22394	190.22896	333.11099	958.07770	63.55922	451.40591	705.21899	31.69831	446.75833	668.56604	39.25305	390.79968	711.83154	26.89884	394.90469	667.40399	27.93007	461.21527	448.26437	80.64458	432.21863	424.42270	187.41475	576.08569	424.95032	87.25995	603.99310	389.55524	85.54539	530.92126	380.00928	79.08573	566.20209	354.41339	78.21680	765.97009	175.55565	133.56851	736.18640	174.40913	210.81378	842.26160	177.88106	182.18797	713.83917	46.04176	223.11177	687.41522	39.08301	184.78889	735.57855	41.67808	122.33112
1832	7.32400	484.48117	977.98499	274.10089	321.55756	981.98041	399.60785	287.36526	748.20386	440.62567	264.10074	707.51538	431.07986	240.35434	774.49078	414.37848	225.14436	729.76807	405.94785	0.00000	0.00000	0.00000	161.21736	495.07318	333.03632	202.60234	404.56711	348.43686	197.72015	356.88409	350.52310	144.66168	404.36975	325.01535	149.10855	358.68744	328.04007	189.02332	91.33310	304.98837	0.00000	0.00000	0.00000	262.40155	43.85508	267.18463	84.64252	33.62996	310.29547	36.76117	52.48701	243.51804	77.83581	28.22973	200.98674	481.27182	983.31213	190.37570	331.10550	958.60419	64.38081	444.80365	704.52386	32.06988	439.55444	667.68646	39.51628	384.16394	711.60620	27.12999	387.72519	667.11658	28.11778	451.67288	447.49213	80.21522	421.34659	422.86545	186.14079	565.90936	425.29382	87.22173	594.52417	390.33902	85.36588	521.70276	379.95056	78.83237	557.29688	354.83914	77.69381	759.44635	179.49086	133.09271	729.73254	177.42145	210.45367	835.51025	184.50307	181.53864	712.17059	47.69075	222.39568	686.03821	39.73396	184.14056	733.74609	44.18460	122.17280
1833	7.32800	479.31769	978.30304	274.35825	316.53674	982.93866	400.17941	283.41064	749.34998	440.92316	260.70712	708.62823	431.81479	236.08815	775.24750	414.69742	221.15894	730.44684	406.62961	0.00000	0.00000	0.00000	158.85634	495.19986	333.19247	200.62971	404.72446	348.56284	196.44255	357.34033	350.86075	142.73863	404.36398	325.24567	147.72095	358.68201	328.24310	188.99457	91.29263	305.07852	0.00000	0.00000	0.00000	262.40433	43.84160	267.20917	84.61822	33.59946	310.32123	36.77682	52.39859	243.55009	77.82304	28.17111	200.98781	476.26831	983.32373	190.55009	323.27322	959.50403	64.42091	438.17825	703.87848	32.44517	432.38992	666.77161	39.72900	378.21893	711.27795	27.24415	380.54138	666.79645	28.27402	442.10535	446.64923	79.91051	410.44858	421.52094	185.00444	555.63641	425.64392	87.03107	583.91705	392.49286	85.67791	512.14600	379.73212	78.30035	547.74457	354.96985	77.16485	752.57861	183.45139	132.69049	723.08362	180.48837	210.16064	828.73187	191.51778	180.49744	710.70966	50.08428	221.94472	684.11896	40.45167	183.88576	731.55011	46.91845	121.93404
1834	7.33200	474.17578	978.59564	274.58807	311.49231	983.94165	400.70035	279.69272	750.58356	441.19794	256.71323	709.62762	432.24069	231.95239	776.12579	414.92197	217.25157	731.25238	407.21188	0.00000	0.00000	0.00000	156.53896	495.52231	333.32596	198.80853	404.86746	348.75275	194.36201	357.11072	350.94333	140.88678	404.23520	325.50543	145.74147	358.53784	328.56897	188.93387	91.25308	305.17065	0.00000	0.00000	0.00000	262.39868	43.82378	267.23987	84.60129	33.54203	310.39203	36.77559	52.32107	243.58841	77.81952	28.16938	200.99036	471.30856	983.35046	190.77147	318.37332	960.20099	64.80093	431.53140	703.28766	32.82388	425.13239	665.81506	39.91030	370.59750	711.09393	27.60408	373.29227	666.47607	28.44835	433.11993	445.72778	79.60588	399.52298	420.43848	184.04184	545.19958	425.86456	86.77287	573.72760	392.88626	85.54438	502.34613	379.41852	77.77721	538.37610	355.20432	76.70298	745.41626	187.46057	132.30388	716.13507	183.58078	209.93315	820.85370	197.88495	180.24477	708.15198	51.93705	221.46501	681.96167	41.45676	183.47623	729.07904	49.91162	121.65749
